<svg width="18" height="19" viewBox="0 0 18 19" fill="none" xmlns="http://www.w3.org/2000/svg">
<path d="M9.84375 4.99609L13.7812 8.65234C13.957 8.79297 14.0625 9.03906 14.0625 9.25C14.0625 9.49609 13.957 9.70703 13.7812 9.88281L9.84375 13.5391C9.49219 13.8555 8.96484 13.8555 8.64844 13.5039C8.33203 13.1523 8.33203 12.625 8.68359 12.3086L11.0391 10.0938H5.0625C4.57031 10.0938 4.21875 9.74219 4.21875 9.25C4.21875 8.79297 4.57031 8.40625 5.0625 8.40625H11.0391L8.68359 6.22656C8.33203 5.91016 8.33203 5.38281 8.64844 5.03125C8.96484 4.67969 9.49219 4.67969 9.84375 4.99609ZM9 0.25C13.957 0.25 18 4.29297 18 9.25C18 14.2422 13.957 18.25 9 18.25C4.00781 18.25 0 14.2422 0 9.25C0 4.29297 4.00781 0.25 9 0.25ZM9 16.5625C13.0078 16.5625 16.3125 13.293 16.3125 9.25C16.3125 5.24219 13.0078 1.9375 9 1.9375C4.95703 1.9375 1.6875 5.24219 1.6875 9.25C1.6875 13.293 4.95703 16.5625 9 16.5625Z" fill="#8D3B72"/>
</svg>
