<svg width="14" height="15" viewBox="0 0 14 15" fill="none" xmlns="http://www.w3.org/2000/svg">
<path d="M7.00024 14.75C3.11743 14.75 0.000244141 11.6328 0.000244141 7.75C0.000244141 3.89453 3.11743 0.75 7.00024 0.75C10.8557 0.75 14.0002 3.89453 14.0002 7.75C14.0002 11.6328 10.8557 14.75 7.00024 14.75ZM10.0901 6.46484H10.0627C10.3362 6.21875 10.3362 5.80859 10.0627 5.53516C9.81665 5.28906 9.40649 5.28906 9.1604 5.53516L6.12524 8.59766L4.84009 7.3125C4.56665 7.03906 4.15649 7.03906 3.9104 7.3125C3.63696 7.55859 3.63696 7.96875 3.9104 8.21484L5.6604 9.96484C5.90649 10.2383 6.31665 10.2383 6.59009 9.96484L10.0901 6.46484Z" fill="#66A07D"/>
</svg>
