<svg width="1070" height="352" viewBox="0 0 1070 352" fill="none" xmlns="http://www.w3.org/2000/svg">
<mask id="mask0_248_2323" style="mask-type:alpha" maskUnits="userSpaceOnUse" x="0" y="0" width="257" height="352">
<rect y="0.31543" width="256.998" height="351.364" fill="#D9D9D9"/>
</mask>
<g mask="url(#mask0_248_2323)">
<path d="M125.864 0.31543V86.1487L105.629 59.843C102.644 55.9622 102.08 50.7377 104.169 46.3095L125.864 0.31543Z" fill="#8D3B72"/>
<path d="M125.864 0.31543V86.1487L146.1 59.843C149.085 55.9622 149.649 50.7377 147.56 46.3095L125.864 0.31543Z" fill="#6E0D25"/>
<path d="M73.5218 68.0931L109.621 125.98L86.4436 117.322C81.857 115.609 78.6142 111.474 78.0434 106.611L73.5218 68.0931Z" fill="#629C79"/>
<path d="M73.5221 68.0925L109.622 125.98L112.045 101.357C112.524 96.4843 110.238 91.7528 106.122 89.1007L73.5221 68.0925Z" fill="#006127"/>
<path d="M162.459 72.374V140.595L147.374 120.984C144.389 117.103 143.825 111.879 145.914 107.45L162.459 72.374Z" fill="#629C79"/>
<path d="M162.46 72.374V140.595L177.545 120.984C180.53 117.103 181.094 111.879 179.005 107.45L162.46 72.374Z" fill="#006127"/>
<path d="M246.075 169.275L173.228 169.275L194.597 152.837C198.478 149.852 203.703 149.288 208.131 151.377L246.075 169.275Z" fill="#629C79"/>
<path d="M246.075 169.274L173.228 169.274L194.597 185.712C198.478 188.697 203.703 189.261 208.131 187.172L246.075 169.274Z" fill="#006127"/>
<path d="M13.9248 176.239L49.522 176.239L42.3118 181.785C38.4311 184.77 33.2065 185.334 28.7783 183.245L13.9248 176.239Z" fill="#629C79"/>
<path d="M13.9248 176.24L49.522 176.24L42.3118 170.693C38.4311 167.708 33.2065 167.144 28.7783 169.233L13.9248 176.24Z" fill="#006127"/>
<path d="M202.147 243.623L158.367 199.842L179.902 202.651C184.757 203.284 188.85 206.58 190.504 211.188L202.147 243.623Z" fill="#FBB039"/>
<path d="M202.148 243.622L158.368 199.841L161.177 221.376C161.81 226.231 165.106 230.324 169.714 231.979L202.148 243.622Z" fill="#F88D21"/>
<path d="M69.9833 252.383L96.4619 225.904L95.1707 235.804C94.5374 240.659 91.2417 244.752 86.6335 246.406L69.9833 252.383Z" fill="#FBB039"/>
<path d="M75.9614 235.734L69.9845 252.384L83.2238 239.145L96.4631 225.905L86.5635 227.197C81.7086 227.83 77.6157 231.126 75.9614 235.734Z" fill="#F88D21"/>
<path d="M147.717 132.005V164.487L143.082 158.461C140.097 154.58 139.533 149.356 141.622 144.927L147.717 132.005Z" fill="#FBB039"/>
<path d="M147.716 132.005V164.487L152.352 158.461C155.337 154.58 155.9 149.356 153.812 144.927L147.716 132.005Z" fill="#F88D21"/>
<path d="M257.097 139.96L224.615 139.96L230.641 135.324C234.522 132.339 239.746 131.775 244.174 133.864L257.097 139.96Z" fill="#FBB039"/>
<path d="M257.097 139.96L224.615 139.96L230.641 144.596C234.522 147.581 239.746 148.145 244.174 146.056L257.097 139.96Z" fill="#F88D21"/>
<path d="M186.511 28.5124L186.806 84.8545L175.115 69.8195C172.11 65.9545 171.519 60.7329 173.584 56.2939L186.511 28.5124Z" fill="#FBB039"/>
<path d="M186.511 28.511L186.806 84.8531L198.339 69.6966C201.304 65.8003 201.84 60.5728 199.728 56.1556L186.511 28.511Z" fill="#F88D21"/>
<path d="M48.6395 22.3986L88.4799 62.239L69.5944 59.7757C64.7394 59.1424 60.6465 55.8467 58.9923 51.2385L48.6395 22.3986Z" fill="#3B6E9C"/>
<path d="M48.6398 22.3992L88.4802 62.2397L86.0169 43.3541C85.3836 38.4991 82.0879 34.4063 77.4797 32.752L48.6398 22.3992Z" fill="#1C3144"/>
<path d="M113.439 129.818V191.618L100.231 174.448C97.2462 170.567 96.6825 165.343 98.7713 160.915L113.439 129.818Z" fill="#3B6E9C"/>
<path d="M113.439 129.818V191.618L126.647 174.448C129.632 170.567 130.195 165.343 128.107 160.915L113.439 129.818Z" fill="#1C3144"/>
<path d="M246.234 204.11L203.45 204.11L213.392 196.462C217.273 193.477 222.497 192.913 226.926 195.002L246.234 204.11Z" fill="#3B6E9C"/>
<path d="M246.234 204.11L203.45 204.11L213.392 211.758C217.273 214.743 222.497 215.307 226.926 213.218L246.234 204.11Z" fill="#1C3144"/>
<path d="M221.928 53.8664L236.625 48.5907L224.456 60.7593L212.288 72.9278L213.391 64.4685C214.024 59.6135 217.32 55.5206 221.928 53.8664Z" fill="#3B6E9C"/>
<path d="M236.624 48.5899L212.287 72.927L220.746 71.8236C225.601 71.1904 229.694 67.8946 231.348 63.2864L236.624 48.5899Z" fill="#1C3144"/>
<path d="M164.517 10.1191V44.537L159.315 37.7751C156.33 33.8943 155.767 28.6698 157.855 24.2416L164.517 10.1191Z" fill="#3B6E9C"/>
<path d="M164.516 10.1191V44.537L169.718 37.7751C172.703 33.8943 173.267 28.6698 171.178 24.2416L164.516 10.1191Z" fill="#1C3144"/>
<path d="M0.362679 107.291L53.1068 160.035L25.5433 156.439C20.6883 155.806 16.5954 152.51 14.9412 147.902L0.362679 107.291Z" fill="#3B6E9C"/>
<path d="M0.363884 107.291L53.108 160.035L49.5127 132.472C48.8795 127.617 45.5837 123.524 40.9755 121.87L0.363884 107.291Z" fill="#1C3144"/>
<path d="M19.7059 68.2043L59.5463 108.045L40.6608 105.581C35.8058 104.948 31.7129 101.652 30.0587 97.0442L19.7059 68.2043Z" fill="#FBB039"/>
<path d="M19.7052 68.203L59.5457 108.043L57.0823 89.1578C56.4491 84.3028 53.1533 80.21 48.5451 78.5557L19.7052 68.203Z" fill="#F88D21"/>
<path d="M95.9225 7.26074V36.3964L92.2656 31.6424C89.2804 27.7616 88.7167 22.537 90.8055 18.1088L95.9225 7.26074Z" fill="#FBB039"/>
<path d="M95.9222 7.26074V36.3964L99.5791 31.6424C102.564 27.7616 103.128 22.537 101.039 18.1088L95.9222 7.26074Z" fill="#F88D21"/>
<path d="M242.919 79.93L194.2 128.649L197.442 103.793C198.075 98.9375 201.371 94.8446 205.979 93.1904L242.919 79.93Z" fill="#8D3B72"/>
<path d="M242.919 79.9294L194.199 128.649L219.056 125.406C223.911 124.773 228.004 121.477 229.658 116.869L242.919 79.9294Z" fill="#6E0D25"/>
<path d="M27.3623 210.508L85.414 210.508L69.6685 222.62C65.7877 225.605 60.5632 226.169 56.135 224.08L27.3623 210.508Z" fill="#8D3B72"/>
<path d="M27.3623 210.507L85.414 210.507L69.6685 198.395C65.7877 195.41 60.5632 194.847 56.135 196.935L27.3623 210.507Z" fill="#6E0D25"/>
<path d="M73.8246 125.477V159.668L68.6894 152.992C65.7042 149.111 65.1405 143.887 67.2293 139.459L73.8246 125.477Z" fill="#8D3B72"/>
<path d="M73.8248 125.477V159.668L78.96 152.992C81.9452 149.111 82.5089 143.887 80.4201 139.459L73.8248 125.477Z" fill="#6E0D25"/>
<path d="M117.44 248.497C110.43 314.362 140.408 332.043 218.392 348.363C218.568 348.399 218.651 348.149 218.487 348.079C154.699 320.565 124.907 298.955 117.741 248.483C117.716 248.31 117.459 248.323 117.44 248.497Z" fill="#814C37"/>
<path d="M95.4822 323.023C101.165 290.682 99.5006 279.62 113.742 259.866C113.835 259.738 114.042 259.823 114.012 259.979C109.487 283.633 109.27 296.643 126.359 316.034C126.424 316.108 126.401 316.228 126.313 316.271C118.236 320.173 114.047 325.068 108.558 335.119C107.207 337.594 105.278 339.747 102.797 341.085C89.438 348.286 80.3051 347.572 65.2063 344.2C65.0403 344.163 65.056 343.92 65.2254 343.906C76.7231 342.965 84.3974 341.762 90.0332 335.915C93.3338 332.49 94.6591 327.708 95.4822 323.023Z" fill="#814C37"/>
<path d="M89.6895 320.317C92.1798 303.745 93.8791 295.884 96.7786 288.012C96.8413 287.842 96.5808 287.738 96.4862 287.892C75.1536 322.803 63.359 330.854 44.2008 323.388C44.0395 323.325 43.9111 323.545 44.0489 323.649C58.2401 334.431 67.7175 336.412 87.0298 324.415C88.4759 323.517 89.4365 322.001 89.6895 320.317Z" fill="#814C37"/>
<path d="M168.124 166.375C103.808 242.771 168.775 315.209 244.099 350.547C244.262 350.623 244.235 350.877 244.062 350.832C192.844 337.72 53.1022 258.72 167.891 166.173C168.031 166.06 168.239 166.237 168.124 166.375Z" fill="#592C19"/>
<path d="M117.761 242.243C108.165 199.468 86.1012 197.026 65.8391 184.885C65.7024 184.803 65.7777 184.594 65.936 184.613C98.9525 188.601 121.334 194.771 118.06 242.219C118.049 242.39 117.798 242.41 117.761 242.243Z" fill="#814C37"/>
</g>
<mask id="path-49-outside-1_248_2323" maskUnits="userSpaceOnUse" x="532" y="253" width="422" height="51" fill="black">
<rect fill="white" x="532" y="253" width="422" height="51"/>
<path d="M546.93 289.082C547.352 289.082 547.696 289.214 547.96 289.479C548.101 289.62 548.198 289.77 548.251 289.929C548.322 290.087 548.357 290.281 548.357 290.511C548.357 290.916 548.225 291.26 547.96 291.543C547.696 291.807 547.352 291.939 546.93 291.939C543.159 291.939 539.916 290.608 537.203 287.944C534.507 285.299 533.106 282.089 533 278.314V255.455C533 255.032 533.141 254.679 533.423 254.397C533.687 254.132 534.031 254 534.454 254C534.665 254 534.85 254.035 535.009 254.106C535.167 254.159 535.317 254.256 535.458 254.397C535.599 254.538 535.696 254.688 535.749 254.847C535.819 255.005 535.855 255.208 535.855 255.455V264.794H544.577C545 264.794 545.344 264.927 545.608 265.191C545.89 265.456 546.031 265.791 546.031 266.197C546.031 266.62 545.89 266.964 545.608 267.229C545.344 267.493 545 267.625 544.577 267.625H535.855V278.076C535.872 279.61 536.154 281.021 536.7 282.309C537.264 283.597 538.084 284.77 539.159 285.828C541.344 287.997 543.934 289.082 546.93 289.082Z"/>
<path d="M566.013 289.029C568.938 289.029 571.441 287.98 573.52 285.881C575.634 283.782 576.692 281.268 576.692 278.34C576.692 275.43 575.634 272.926 573.52 270.827C571.441 268.71 568.938 267.652 566.013 267.652C563.07 267.652 560.559 268.71 558.48 270.827C556.383 272.908 555.335 275.413 555.335 278.34C555.335 281.286 556.383 283.799 558.48 285.881C560.559 287.98 563.07 289.029 566.013 289.029ZM566.013 264.847C569.731 264.847 572.903 266.17 575.529 268.816C578.154 271.373 579.467 274.548 579.467 278.34C579.467 282.133 578.154 285.308 575.529 287.865C572.956 290.511 569.784 291.834 566.013 291.834C564.128 291.834 562.392 291.507 560.806 290.855C559.238 290.202 557.793 289.206 556.471 287.865C553.846 285.308 552.533 282.133 552.533 278.34C552.533 274.548 553.846 271.373 556.471 268.816C559.097 266.17 562.278 264.847 566.013 264.847Z"/>
<path d="M598.524 289.082C598.947 289.082 599.291 289.214 599.555 289.479C599.696 289.62 599.793 289.77 599.846 289.929C599.916 290.087 599.952 290.281 599.952 290.511C599.952 290.916 599.819 291.26 599.555 291.543C599.291 291.807 598.947 291.939 598.524 291.939C594.753 291.939 591.511 290.608 588.797 287.944C586.101 285.299 584.7 282.089 584.595 278.314V255.455C584.595 255.032 584.736 254.679 585.018 254.397C585.282 254.132 585.626 254 586.048 254C586.26 254 586.445 254.035 586.604 254.106C586.762 254.159 586.912 254.256 587.053 254.397C587.194 254.538 587.291 254.688 587.344 254.847C587.414 255.005 587.449 255.208 587.449 255.455V264.794H596.172C596.595 264.794 596.938 264.927 597.203 265.191C597.485 265.456 597.626 265.791 597.626 266.197C597.626 266.62 597.485 266.964 597.203 267.229C596.938 267.493 596.595 267.625 596.172 267.625H587.449V278.076C587.467 279.61 587.749 281.021 588.295 282.309C588.859 283.597 589.678 284.77 590.753 285.828C592.938 287.997 595.529 289.082 598.524 289.082Z"/>
<path d="M618.322 289.161C621.247 289.161 623.758 288.112 625.855 286.013C627.952 283.879 629 281.348 629 278.42C629 275.492 627.952 272.979 625.855 270.88C623.758 268.781 621.247 267.731 618.322 267.731C615.361 267.731 612.833 268.781 610.736 270.88C608.639 272.979 607.59 275.492 607.59 278.42C607.59 281.348 608.639 283.879 610.736 286.013C612.833 288.112 615.361 289.161 618.322 289.161ZM631.802 290.59C631.802 290.978 631.67 291.322 631.405 291.622C631.264 291.728 631.115 291.816 630.956 291.887C630.797 291.957 630.612 291.992 630.401 291.992C630.031 291.992 629.696 291.869 629.396 291.622C629.132 291.287 629 290.943 629 290.59V286.674C628.489 287.327 627.925 287.927 627.308 288.474C626.692 289.02 626.022 289.523 625.3 289.982C623.185 291.304 620.859 291.966 618.322 291.966C614.621 291.966 611.423 290.652 608.727 288.024C606.101 285.325 604.789 282.124 604.789 278.42C604.789 276.568 605.123 274.848 605.793 273.261C606.463 271.673 607.441 270.209 608.727 268.869C611.405 266.241 614.604 264.927 618.322 264.927C622.004 264.927 625.185 266.241 627.863 268.869C630.489 271.55 631.802 274.734 631.802 278.42V290.59Z"/>
<path d="M651.599 289.056H651.573C651.925 289.056 652.251 289.188 652.551 289.452C652.709 289.611 652.815 289.77 652.868 289.929C652.938 290.087 652.974 290.281 652.974 290.511C652.974 290.899 652.833 291.243 652.551 291.543C652.251 291.807 651.925 291.939 651.573 291.939H651.414C647.731 291.939 644.515 290.599 641.767 287.918C640.392 286.577 639.361 285.105 638.674 283.5C638.004 281.895 637.652 280.14 637.617 278.235V255.429C637.617 255.217 637.643 255.032 637.696 254.873C637.767 254.697 637.872 254.538 638.013 254.397C638.313 254.132 638.656 254 639.044 254C639.273 254 639.467 254.035 639.626 254.106C639.784 254.159 639.943 254.256 640.101 254.397C640.242 254.538 640.339 254.697 640.392 254.873C640.463 255.032 640.498 255.217 640.498 255.429V277.944C640.498 279.478 640.762 280.898 641.291 282.203C641.819 283.491 642.595 284.673 643.617 285.748C643.793 285.907 643.969 286.092 644.145 286.304C644.339 286.498 644.515 286.666 644.674 286.807L644.621 286.754C644.797 286.877 644.965 287.001 645.123 287.124C645.3 287.23 645.458 287.336 645.599 287.442C645.74 287.53 645.872 287.609 645.996 287.68C646.119 287.733 646.26 287.794 646.419 287.865C646.665 287.988 646.921 288.103 647.185 288.209C647.467 288.315 647.74 288.412 648.004 288.5L649.855 288.95L651.599 289.056Z"/>
<path d="M692.119 286.304C692.507 286.357 692.806 286.507 693.018 286.754C693.264 287.018 693.388 287.38 693.388 287.839C693.335 288.262 693.159 288.588 692.859 288.817V288.791C690.392 290.802 687.564 291.807 684.374 291.807C680.621 291.807 677.441 290.493 674.833 287.865C672.189 285.219 670.868 282.053 670.868 278.367C670.868 274.61 672.189 271.426 674.833 268.816C677.441 266.17 680.621 264.847 684.374 264.847C687.529 264.847 690.33 265.835 692.78 267.811H692.753C692.93 267.916 693.053 268.058 693.123 268.234C693.211 268.393 693.273 268.604 693.308 268.869C693.308 269.257 693.211 269.557 693.018 269.768V269.742C692.877 269.954 692.727 270.095 692.568 270.165C692.427 270.218 692.26 270.262 692.066 270.298H691.855C691.52 270.298 691.238 270.209 691.009 270.033C689.035 268.446 686.824 267.652 684.374 267.652C681.432 267.652 678.921 268.692 676.841 270.774C674.727 272.873 673.67 275.404 673.67 278.367C673.67 281.312 674.727 283.817 676.841 285.881C678.921 287.962 681.432 289.003 684.374 289.003C686.894 289.003 689.132 288.209 691.088 286.622C691.335 286.41 691.608 286.304 691.907 286.304H692.119Z"/>
<path d="M713.317 289.161C716.242 289.161 718.753 288.112 720.85 286.013C722.947 283.879 723.996 281.348 723.996 278.42C723.996 275.492 722.947 272.979 720.85 270.88C718.753 268.781 716.242 267.731 713.317 267.731C710.357 267.731 707.828 268.781 705.731 270.88C703.634 272.979 702.586 275.492 702.586 278.42C702.586 281.348 703.634 283.879 705.731 286.013C707.828 288.112 710.357 289.161 713.317 289.161ZM726.797 290.59C726.797 290.978 726.665 291.322 726.401 291.622C726.26 291.728 726.11 291.816 725.952 291.887C725.793 291.957 725.608 291.992 725.396 291.992C725.026 291.992 724.692 291.869 724.392 291.622C724.128 291.287 723.996 290.943 723.996 290.59V286.674C723.485 287.327 722.921 287.927 722.304 288.474C721.687 289.02 721.018 289.523 720.295 289.982C718.181 291.304 715.855 291.966 713.317 291.966C709.617 291.966 706.419 290.652 703.722 288.024C701.097 285.325 699.784 282.124 699.784 278.42C699.784 276.568 700.119 274.848 700.789 273.261C701.458 271.673 702.436 270.209 703.722 268.869C706.401 266.241 709.599 264.927 713.317 264.927C717 264.927 720.181 266.241 722.859 268.869C725.485 271.55 726.797 274.734 726.797 278.42V290.59Z"/>
<path d="M743.978 264.847C747.009 264.847 749.599 265.923 751.749 268.075C753.899 270.227 754.974 272.829 754.974 275.88C754.974 276.268 754.824 276.594 754.524 276.859C754.295 277.123 753.969 277.256 753.546 277.256C753.211 277.256 752.885 277.123 752.568 276.859C752.304 276.577 752.172 276.25 752.172 275.88C752.172 273.622 751.361 271.682 749.74 270.059C748.119 268.437 746.198 267.625 743.978 267.625C741.705 267.625 739.758 268.437 738.137 270.059C736.533 271.664 735.731 273.605 735.731 275.88V290.749C735.731 291.19 735.599 291.525 735.335 291.754C735.07 292.036 734.744 292.178 734.357 292.178C733.952 292.178 733.617 292.028 733.352 291.728C733.088 291.498 732.956 291.172 732.956 290.749V275.721C733.009 272.67 734.093 270.104 736.207 268.022C738.339 265.906 740.93 264.847 743.978 264.847Z"/>
<path d="M784.789 276.753C784.595 275.518 784.216 274.39 783.652 273.367C783.106 272.344 782.374 271.4 781.458 270.536C780.454 269.654 779.335 268.975 778.101 268.498C776.868 268.005 775.581 267.758 774.242 267.758C771.458 267.758 769.035 268.701 766.974 270.589V270.562C765.106 272.273 763.987 274.337 763.617 276.753H784.789ZM787.749 278.182C787.749 278.27 787.74 278.34 787.722 278.393C787.581 279.169 787.123 279.558 786.348 279.558H763.564C763.811 282.203 764.877 284.417 766.762 286.198C767.784 287.221 768.921 287.98 770.172 288.474C771.423 288.967 772.78 289.214 774.242 289.214C775.934 289.214 777.59 288.809 779.211 287.997H779.185C780.736 287.186 782.013 286.057 783.018 284.611C783.211 284.293 783.546 284.082 784.022 283.976H784.154C784.436 283.976 784.727 284.082 785.026 284.293C785.326 284.54 785.502 284.84 785.555 285.193C785.573 285.228 785.581 285.272 785.581 285.325C785.581 285.36 785.581 285.396 785.581 285.431C785.581 285.766 785.485 286.039 785.291 286.251V286.198C784.674 287.115 783.96 287.936 783.15 288.659C782.357 289.364 781.467 289.982 780.48 290.511C778.542 291.534 776.463 292.045 774.242 292.045C770.489 292.045 767.282 290.722 764.621 288.077C761.978 285.413 760.656 282.212 760.656 278.473V278.076C760.797 274.407 762.181 271.303 764.806 268.763C767.414 266.206 770.559 264.927 774.242 264.927C777.907 264.927 781.044 266.206 783.652 268.763C786.313 271.321 787.678 274.442 787.749 278.129V278.182Z"/>
<path d="M819.626 288.976C822.568 288.976 825.097 287.944 827.211 285.881C829.326 283.764 830.383 281.277 830.383 278.42C830.383 276.938 830.119 275.589 829.59 274.372C829.062 273.137 828.269 271.991 827.211 270.933C825.115 268.851 822.586 267.811 819.626 267.811C816.648 267.811 814.11 268.851 812.013 270.933C810.956 271.991 810.163 273.137 809.634 274.372C809.123 275.589 808.868 276.938 808.868 278.42C808.868 281.277 809.916 283.764 812.013 285.881C814.11 287.944 816.648 288.976 819.626 288.976ZM833.159 290.987C833.159 294.162 831.775 296.86 829.009 299.083C826.295 301.288 823.026 302.39 819.203 302.39C818.833 302.39 818.507 302.249 818.225 301.967C817.96 301.702 817.828 301.376 817.828 300.988C817.828 300.776 817.855 300.591 817.908 300.432C817.978 300.273 818.084 300.123 818.225 299.982C818.507 299.7 818.833 299.559 819.203 299.559C822.322 299.559 824.974 298.712 827.159 297.019C829.308 295.344 830.383 293.333 830.383 290.987V286.569C829.855 287.221 829.282 287.821 828.665 288.368C828.066 288.897 827.396 289.391 826.656 289.849C824.454 291.155 822.11 291.807 819.626 291.807C817.74 291.807 815.996 291.49 814.392 290.855C812.789 290.202 811.326 289.206 810.004 287.865C807.361 285.255 806.04 282.106 806.04 278.42C806.04 274.681 807.361 271.515 810.004 268.922C812.63 266.294 815.837 264.98 819.626 264.98C823.344 264.98 826.612 266.347 829.432 269.081L831.044 270.906L831.705 272.044L832.181 273.181L832.63 274.266L832.947 275.589C833.018 276.1 833.07 276.594 833.106 277.071C833.141 277.529 833.159 277.979 833.159 278.42V290.987Z"/>
<path d="M849.811 264.847C852.841 264.847 855.432 265.923 857.582 268.075C859.731 270.227 860.806 272.829 860.806 275.88C860.806 276.268 860.656 276.594 860.357 276.859C860.128 277.123 859.802 277.256 859.379 277.256C859.044 277.256 858.718 277.123 858.401 276.859C858.137 276.577 858.004 276.25 858.004 275.88C858.004 273.622 857.194 271.682 855.573 270.059C853.952 268.437 852.031 267.625 849.811 267.625C847.537 267.625 845.59 268.437 843.969 270.059C842.366 271.664 841.564 273.605 841.564 275.88V290.749C841.564 291.19 841.432 291.525 841.167 291.754C840.903 292.036 840.577 292.178 840.189 292.178C839.784 292.178 839.449 292.028 839.185 291.728C838.921 291.498 838.789 291.172 838.789 290.749V275.721C838.841 272.67 839.925 270.104 842.04 268.022C844.172 265.906 846.762 264.847 849.811 264.847Z"/>
<path d="M879.441 289.029C882.366 289.029 884.868 287.98 886.947 285.881C889.062 283.782 890.119 281.268 890.119 278.34C890.119 275.43 889.062 272.926 886.947 270.827C884.868 268.71 882.366 267.652 879.441 267.652C876.498 267.652 873.987 268.71 871.908 270.827C869.811 272.908 868.762 275.413 868.762 278.34C868.762 281.286 869.811 283.799 871.908 285.881C873.987 287.98 876.498 289.029 879.441 289.029ZM879.441 264.847C883.159 264.847 886.33 266.17 888.956 268.816C891.582 271.373 892.894 274.548 892.894 278.34C892.894 282.133 891.582 285.308 888.956 287.865C886.383 290.511 883.211 291.834 879.441 291.834C877.555 291.834 875.819 291.507 874.233 290.855C872.665 290.202 871.22 289.206 869.899 287.865C867.273 285.308 865.96 282.133 865.96 278.34C865.96 274.548 867.273 271.373 869.899 268.816C872.524 266.17 875.705 264.847 879.441 264.847Z"/>
<path d="M919.485 264.768C919.925 264.768 920.269 264.936 920.515 265.271L920.489 265.218C920.753 265.465 920.885 265.791 920.885 266.197V280.986C920.885 284.02 919.784 286.604 917.582 288.738H917.608C915.476 290.872 912.85 291.939 909.731 291.939C908.181 291.939 906.762 291.675 905.476 291.146C904.189 290.617 903 289.832 901.908 288.791C899.722 286.727 898.604 284.179 898.551 281.145V266.197C898.551 265.809 898.683 265.482 898.947 265.218C899.229 264.918 899.564 264.768 899.952 264.768C900.374 264.768 900.718 264.936 900.982 265.271L900.956 265.218C901.238 265.482 901.379 265.809 901.379 266.197V280.986C901.379 283.244 902.189 285.149 903.811 286.701C905.432 288.306 907.405 289.109 909.731 289.109C912.04 289.109 914.013 288.306 915.652 286.701C917.256 285.149 918.057 283.244 918.057 280.986V266.197C918.057 265.809 918.207 265.482 918.507 265.218C918.771 264.918 919.097 264.768 919.485 264.768Z"/>
<path d="M939.599 289.003C942.524 289.003 945.018 287.962 947.079 285.881C949.176 283.799 950.225 281.295 950.225 278.367C950.225 275.474 949.176 272.987 947.079 270.906C945.018 268.807 942.524 267.758 939.599 267.758C936.674 267.758 934.189 268.807 932.145 270.906C930.031 272.952 928.974 275.439 928.974 278.367C928.974 281.33 930.031 283.835 932.145 285.881C934.207 287.962 936.692 289.003 939.599 289.003ZM939.599 264.98C943.317 264.98 946.48 266.294 949.088 268.922C951.696 271.497 953 274.645 953 278.367C953 282.124 951.696 285.29 949.088 287.865C946.463 290.493 943.3 291.807 939.599 291.807C937.097 291.807 934.78 291.155 932.648 289.849C931.943 289.408 931.282 288.914 930.665 288.368C930.048 287.821 929.485 287.221 928.974 286.569V300.882C928.974 301.323 928.85 301.667 928.604 301.914C928.304 302.178 927.978 302.311 927.626 302.311C927.203 302.311 926.868 302.169 926.621 301.887C926.339 301.623 926.198 301.288 926.198 300.882V278.367C926.198 274.663 927.511 271.515 930.137 268.922C932.727 266.294 935.881 264.98 939.599 264.98Z"/>
</mask>
<path d="M546.93 289.082C547.352 289.082 547.696 289.214 547.96 289.479C548.101 289.62 548.198 289.77 548.251 289.929C548.322 290.087 548.357 290.281 548.357 290.511C548.357 290.916 548.225 291.26 547.96 291.543C547.696 291.807 547.352 291.939 546.93 291.939C543.159 291.939 539.916 290.608 537.203 287.944C534.507 285.299 533.106 282.089 533 278.314V255.455C533 255.032 533.141 254.679 533.423 254.397C533.687 254.132 534.031 254 534.454 254C534.665 254 534.85 254.035 535.009 254.106C535.167 254.159 535.317 254.256 535.458 254.397C535.599 254.538 535.696 254.688 535.749 254.847C535.819 255.005 535.855 255.208 535.855 255.455V264.794H544.577C545 264.794 545.344 264.927 545.608 265.191C545.89 265.456 546.031 265.791 546.031 266.197C546.031 266.62 545.89 266.964 545.608 267.229C545.344 267.493 545 267.625 544.577 267.625H535.855V278.076C535.872 279.61 536.154 281.021 536.7 282.309C537.264 283.597 538.084 284.77 539.159 285.828C541.344 287.997 543.934 289.082 546.93 289.082Z" fill="#1C3144"/>
<path d="M566.013 289.029C568.938 289.029 571.441 287.98 573.52 285.881C575.634 283.782 576.692 281.268 576.692 278.34C576.692 275.43 575.634 272.926 573.52 270.827C571.441 268.71 568.938 267.652 566.013 267.652C563.07 267.652 560.559 268.71 558.48 270.827C556.383 272.908 555.335 275.413 555.335 278.34C555.335 281.286 556.383 283.799 558.48 285.881C560.559 287.98 563.07 289.029 566.013 289.029ZM566.013 264.847C569.731 264.847 572.903 266.17 575.529 268.816C578.154 271.373 579.467 274.548 579.467 278.34C579.467 282.133 578.154 285.308 575.529 287.865C572.956 290.511 569.784 291.834 566.013 291.834C564.128 291.834 562.392 291.507 560.806 290.855C559.238 290.202 557.793 289.206 556.471 287.865C553.846 285.308 552.533 282.133 552.533 278.34C552.533 274.548 553.846 271.373 556.471 268.816C559.097 266.17 562.278 264.847 566.013 264.847Z" fill="#1C3144"/>
<path d="M598.524 289.082C598.947 289.082 599.291 289.214 599.555 289.479C599.696 289.62 599.793 289.77 599.846 289.929C599.916 290.087 599.952 290.281 599.952 290.511C599.952 290.916 599.819 291.26 599.555 291.543C599.291 291.807 598.947 291.939 598.524 291.939C594.753 291.939 591.511 290.608 588.797 287.944C586.101 285.299 584.7 282.089 584.595 278.314V255.455C584.595 255.032 584.736 254.679 585.018 254.397C585.282 254.132 585.626 254 586.048 254C586.26 254 586.445 254.035 586.604 254.106C586.762 254.159 586.912 254.256 587.053 254.397C587.194 254.538 587.291 254.688 587.344 254.847C587.414 255.005 587.449 255.208 587.449 255.455V264.794H596.172C596.595 264.794 596.938 264.927 597.203 265.191C597.485 265.456 597.626 265.791 597.626 266.197C597.626 266.62 597.485 266.964 597.203 267.229C596.938 267.493 596.595 267.625 596.172 267.625H587.449V278.076C587.467 279.61 587.749 281.021 588.295 282.309C588.859 283.597 589.678 284.77 590.753 285.828C592.938 287.997 595.529 289.082 598.524 289.082Z" fill="#1C3144"/>
<path d="M618.322 289.161C621.247 289.161 623.758 288.112 625.855 286.013C627.952 283.879 629 281.348 629 278.42C629 275.492 627.952 272.979 625.855 270.88C623.758 268.781 621.247 267.731 618.322 267.731C615.361 267.731 612.833 268.781 610.736 270.88C608.639 272.979 607.59 275.492 607.59 278.42C607.59 281.348 608.639 283.879 610.736 286.013C612.833 288.112 615.361 289.161 618.322 289.161ZM631.802 290.59C631.802 290.978 631.67 291.322 631.405 291.622C631.264 291.728 631.115 291.816 630.956 291.887C630.797 291.957 630.612 291.992 630.401 291.992C630.031 291.992 629.696 291.869 629.396 291.622C629.132 291.287 629 290.943 629 290.59V286.674C628.489 287.327 627.925 287.927 627.308 288.474C626.692 289.02 626.022 289.523 625.3 289.982C623.185 291.304 620.859 291.966 618.322 291.966C614.621 291.966 611.423 290.652 608.727 288.024C606.101 285.325 604.789 282.124 604.789 278.42C604.789 276.568 605.123 274.848 605.793 273.261C606.463 271.673 607.441 270.209 608.727 268.869C611.405 266.241 614.604 264.927 618.322 264.927C622.004 264.927 625.185 266.241 627.863 268.869C630.489 271.55 631.802 274.734 631.802 278.42V290.59Z" fill="#1C3144"/>
<path d="M651.599 289.056H651.573C651.925 289.056 652.251 289.188 652.551 289.452C652.709 289.611 652.815 289.77 652.868 289.929C652.938 290.087 652.974 290.281 652.974 290.511C652.974 290.899 652.833 291.243 652.551 291.543C652.251 291.807 651.925 291.939 651.573 291.939H651.414C647.731 291.939 644.515 290.599 641.767 287.918C640.392 286.577 639.361 285.105 638.674 283.5C638.004 281.895 637.652 280.14 637.617 278.235V255.429C637.617 255.217 637.643 255.032 637.696 254.873C637.767 254.697 637.872 254.538 638.013 254.397C638.313 254.132 638.656 254 639.044 254C639.273 254 639.467 254.035 639.626 254.106C639.784 254.159 639.943 254.256 640.101 254.397C640.242 254.538 640.339 254.697 640.392 254.873C640.463 255.032 640.498 255.217 640.498 255.429V277.944C640.498 279.478 640.762 280.898 641.291 282.203C641.819 283.491 642.595 284.673 643.617 285.748C643.793 285.907 643.969 286.092 644.145 286.304C644.339 286.498 644.515 286.666 644.674 286.807L644.621 286.754C644.797 286.877 644.965 287.001 645.123 287.124C645.3 287.23 645.458 287.336 645.599 287.442C645.74 287.53 645.872 287.609 645.996 287.68C646.119 287.733 646.26 287.794 646.419 287.865C646.665 287.988 646.921 288.103 647.185 288.209C647.467 288.315 647.74 288.412 648.004 288.5L649.855 288.95L651.599 289.056Z" fill="#1C3144"/>
<path d="M692.119 286.304C692.507 286.357 692.806 286.507 693.018 286.754C693.264 287.018 693.388 287.38 693.388 287.839C693.335 288.262 693.159 288.588 692.859 288.817V288.791C690.392 290.802 687.564 291.807 684.374 291.807C680.621 291.807 677.441 290.493 674.833 287.865C672.189 285.219 670.868 282.053 670.868 278.367C670.868 274.61 672.189 271.426 674.833 268.816C677.441 266.17 680.621 264.847 684.374 264.847C687.529 264.847 690.33 265.835 692.78 267.811H692.753C692.93 267.916 693.053 268.058 693.123 268.234C693.211 268.393 693.273 268.604 693.308 268.869C693.308 269.257 693.211 269.557 693.018 269.768V269.742C692.877 269.954 692.727 270.095 692.568 270.165C692.427 270.218 692.26 270.262 692.066 270.298H691.855C691.52 270.298 691.238 270.209 691.009 270.033C689.035 268.446 686.824 267.652 684.374 267.652C681.432 267.652 678.921 268.692 676.841 270.774C674.727 272.873 673.67 275.404 673.67 278.367C673.67 281.312 674.727 283.817 676.841 285.881C678.921 287.962 681.432 289.003 684.374 289.003C686.894 289.003 689.132 288.209 691.088 286.622C691.335 286.41 691.608 286.304 691.907 286.304H692.119Z" fill="#1C3144"/>
<path d="M713.317 289.161C716.242 289.161 718.753 288.112 720.85 286.013C722.947 283.879 723.996 281.348 723.996 278.42C723.996 275.492 722.947 272.979 720.85 270.88C718.753 268.781 716.242 267.731 713.317 267.731C710.357 267.731 707.828 268.781 705.731 270.88C703.634 272.979 702.586 275.492 702.586 278.42C702.586 281.348 703.634 283.879 705.731 286.013C707.828 288.112 710.357 289.161 713.317 289.161ZM726.797 290.59C726.797 290.978 726.665 291.322 726.401 291.622C726.26 291.728 726.11 291.816 725.952 291.887C725.793 291.957 725.608 291.992 725.396 291.992C725.026 291.992 724.692 291.869 724.392 291.622C724.128 291.287 723.996 290.943 723.996 290.59V286.674C723.485 287.327 722.921 287.927 722.304 288.474C721.687 289.02 721.018 289.523 720.295 289.982C718.181 291.304 715.855 291.966 713.317 291.966C709.617 291.966 706.419 290.652 703.722 288.024C701.097 285.325 699.784 282.124 699.784 278.42C699.784 276.568 700.119 274.848 700.789 273.261C701.458 271.673 702.436 270.209 703.722 268.869C706.401 266.241 709.599 264.927 713.317 264.927C717 264.927 720.181 266.241 722.859 268.869C725.485 271.55 726.797 274.734 726.797 278.42V290.59Z" fill="#1C3144"/>
<path d="M743.978 264.847C747.009 264.847 749.599 265.923 751.749 268.075C753.899 270.227 754.974 272.829 754.974 275.88C754.974 276.268 754.824 276.594 754.524 276.859C754.295 277.123 753.969 277.256 753.546 277.256C753.211 277.256 752.885 277.123 752.568 276.859C752.304 276.577 752.172 276.25 752.172 275.88C752.172 273.622 751.361 271.682 749.74 270.059C748.119 268.437 746.198 267.625 743.978 267.625C741.705 267.625 739.758 268.437 738.137 270.059C736.533 271.664 735.731 273.605 735.731 275.88V290.749C735.731 291.19 735.599 291.525 735.335 291.754C735.07 292.036 734.744 292.178 734.357 292.178C733.952 292.178 733.617 292.028 733.352 291.728C733.088 291.498 732.956 291.172 732.956 290.749V275.721C733.009 272.67 734.093 270.104 736.207 268.022C738.339 265.906 740.93 264.847 743.978 264.847Z" fill="#1C3144"/>
<path d="M784.789 276.753C784.595 275.518 784.216 274.39 783.652 273.367C783.106 272.344 782.374 271.4 781.458 270.536C780.454 269.654 779.335 268.975 778.101 268.498C776.868 268.005 775.581 267.758 774.242 267.758C771.458 267.758 769.035 268.701 766.974 270.589V270.562C765.106 272.273 763.987 274.337 763.617 276.753H784.789ZM787.749 278.182C787.749 278.27 787.74 278.34 787.722 278.393C787.581 279.169 787.123 279.558 786.348 279.558H763.564C763.811 282.203 764.877 284.417 766.762 286.198C767.784 287.221 768.921 287.98 770.172 288.474C771.423 288.967 772.78 289.214 774.242 289.214C775.934 289.214 777.59 288.809 779.211 287.997H779.185C780.736 287.186 782.013 286.057 783.018 284.611C783.211 284.293 783.546 284.082 784.022 283.976H784.154C784.436 283.976 784.727 284.082 785.026 284.293C785.326 284.54 785.502 284.84 785.555 285.193C785.573 285.228 785.581 285.272 785.581 285.325C785.581 285.36 785.581 285.396 785.581 285.431C785.581 285.766 785.485 286.039 785.291 286.251V286.198C784.674 287.115 783.96 287.936 783.15 288.659C782.357 289.364 781.467 289.982 780.48 290.511C778.542 291.534 776.463 292.045 774.242 292.045C770.489 292.045 767.282 290.722 764.621 288.077C761.978 285.413 760.656 282.212 760.656 278.473V278.076C760.797 274.407 762.181 271.303 764.806 268.763C767.414 266.206 770.559 264.927 774.242 264.927C777.907 264.927 781.044 266.206 783.652 268.763C786.313 271.321 787.678 274.442 787.749 278.129V278.182Z" fill="#1C3144"/>
<path d="M819.626 288.976C822.568 288.976 825.097 287.944 827.211 285.881C829.326 283.764 830.383 281.277 830.383 278.42C830.383 276.938 830.119 275.589 829.59 274.372C829.062 273.137 828.269 271.991 827.211 270.933C825.115 268.851 822.586 267.811 819.626 267.811C816.648 267.811 814.11 268.851 812.013 270.933C810.956 271.991 810.163 273.137 809.634 274.372C809.123 275.589 808.868 276.938 808.868 278.42C808.868 281.277 809.916 283.764 812.013 285.881C814.11 287.944 816.648 288.976 819.626 288.976ZM833.159 290.987C833.159 294.162 831.775 296.86 829.009 299.083C826.295 301.288 823.026 302.39 819.203 302.39C818.833 302.39 818.507 302.249 818.225 301.967C817.96 301.702 817.828 301.376 817.828 300.988C817.828 300.776 817.855 300.591 817.908 300.432C817.978 300.273 818.084 300.123 818.225 299.982C818.507 299.7 818.833 299.559 819.203 299.559C822.322 299.559 824.974 298.712 827.159 297.019C829.308 295.344 830.383 293.333 830.383 290.987V286.569C829.855 287.221 829.282 287.821 828.665 288.368C828.066 288.897 827.396 289.391 826.656 289.849C824.454 291.155 822.11 291.807 819.626 291.807C817.74 291.807 815.996 291.49 814.392 290.855C812.789 290.202 811.326 289.206 810.004 287.865C807.361 285.255 806.04 282.106 806.04 278.42C806.04 274.681 807.361 271.515 810.004 268.922C812.63 266.294 815.837 264.98 819.626 264.98C823.344 264.98 826.612 266.347 829.432 269.081L831.044 270.906L831.705 272.044L832.181 273.181L832.63 274.266L832.947 275.589C833.018 276.1 833.07 276.594 833.106 277.071C833.141 277.529 833.159 277.979 833.159 278.42V290.987Z" fill="#1C3144"/>
<path d="M849.811 264.847C852.841 264.847 855.432 265.923 857.582 268.075C859.731 270.227 860.806 272.829 860.806 275.88C860.806 276.268 860.656 276.594 860.357 276.859C860.128 277.123 859.802 277.256 859.379 277.256C859.044 277.256 858.718 277.123 858.401 276.859C858.137 276.577 858.004 276.25 858.004 275.88C858.004 273.622 857.194 271.682 855.573 270.059C853.952 268.437 852.031 267.625 849.811 267.625C847.537 267.625 845.59 268.437 843.969 270.059C842.366 271.664 841.564 273.605 841.564 275.88V290.749C841.564 291.19 841.432 291.525 841.167 291.754C840.903 292.036 840.577 292.178 840.189 292.178C839.784 292.178 839.449 292.028 839.185 291.728C838.921 291.498 838.789 291.172 838.789 290.749V275.721C838.841 272.67 839.925 270.104 842.04 268.022C844.172 265.906 846.762 264.847 849.811 264.847Z" fill="#1C3144"/>
<path d="M879.441 289.029C882.366 289.029 884.868 287.98 886.947 285.881C889.062 283.782 890.119 281.268 890.119 278.34C890.119 275.43 889.062 272.926 886.947 270.827C884.868 268.71 882.366 267.652 879.441 267.652C876.498 267.652 873.987 268.71 871.908 270.827C869.811 272.908 868.762 275.413 868.762 278.34C868.762 281.286 869.811 283.799 871.908 285.881C873.987 287.98 876.498 289.029 879.441 289.029ZM879.441 264.847C883.159 264.847 886.33 266.17 888.956 268.816C891.582 271.373 892.894 274.548 892.894 278.34C892.894 282.133 891.582 285.308 888.956 287.865C886.383 290.511 883.211 291.834 879.441 291.834C877.555 291.834 875.819 291.507 874.233 290.855C872.665 290.202 871.22 289.206 869.899 287.865C867.273 285.308 865.96 282.133 865.96 278.34C865.96 274.548 867.273 271.373 869.899 268.816C872.524 266.17 875.705 264.847 879.441 264.847Z" fill="#1C3144"/>
<path d="M919.485 264.768C919.925 264.768 920.269 264.936 920.515 265.271L920.489 265.218C920.753 265.465 920.885 265.791 920.885 266.197V280.986C920.885 284.02 919.784 286.604 917.582 288.738H917.608C915.476 290.872 912.85 291.939 909.731 291.939C908.181 291.939 906.762 291.675 905.476 291.146C904.189 290.617 903 289.832 901.908 288.791C899.722 286.727 898.604 284.179 898.551 281.145V266.197C898.551 265.809 898.683 265.482 898.947 265.218C899.229 264.918 899.564 264.768 899.952 264.768C900.374 264.768 900.718 264.936 900.982 265.271L900.956 265.218C901.238 265.482 901.379 265.809 901.379 266.197V280.986C901.379 283.244 902.189 285.149 903.811 286.701C905.432 288.306 907.405 289.109 909.731 289.109C912.04 289.109 914.013 288.306 915.652 286.701C917.256 285.149 918.057 283.244 918.057 280.986V266.197C918.057 265.809 918.207 265.482 918.507 265.218C918.771 264.918 919.097 264.768 919.485 264.768Z" fill="#1C3144"/>
<path d="M939.599 289.003C942.524 289.003 945.018 287.962 947.079 285.881C949.176 283.799 950.225 281.295 950.225 278.367C950.225 275.474 949.176 272.987 947.079 270.906C945.018 268.807 942.524 267.758 939.599 267.758C936.674 267.758 934.189 268.807 932.145 270.906C930.031 272.952 928.974 275.439 928.974 278.367C928.974 281.33 930.031 283.835 932.145 285.881C934.207 287.962 936.692 289.003 939.599 289.003ZM939.599 264.98C943.317 264.98 946.48 266.294 949.088 268.922C951.696 271.497 953 274.645 953 278.367C953 282.124 951.696 285.29 949.088 287.865C946.463 290.493 943.3 291.807 939.599 291.807C937.097 291.807 934.78 291.155 932.648 289.849C931.943 289.408 931.282 288.914 930.665 288.368C930.048 287.821 929.485 287.221 928.974 286.569V300.882C928.974 301.323 928.85 301.667 928.604 301.914C928.304 302.178 927.978 302.311 927.626 302.311C927.203 302.311 926.868 302.169 926.621 301.887C926.339 301.623 926.198 301.288 926.198 300.882V278.367C926.198 274.663 927.511 271.515 930.137 268.922C932.727 266.294 935.881 264.98 939.599 264.98Z" fill="#1C3144"/>
<path d="M546.93 289.082C547.352 289.082 547.696 289.214 547.96 289.479C548.101 289.62 548.198 289.77 548.251 289.929C548.322 290.087 548.357 290.281 548.357 290.511C548.357 290.916 548.225 291.26 547.96 291.543C547.696 291.807 547.352 291.939 546.93 291.939C543.159 291.939 539.916 290.608 537.203 287.944C534.507 285.299 533.106 282.089 533 278.314V255.455C533 255.032 533.141 254.679 533.423 254.397C533.687 254.132 534.031 254 534.454 254C534.665 254 534.85 254.035 535.009 254.106C535.167 254.159 535.317 254.256 535.458 254.397C535.599 254.538 535.696 254.688 535.749 254.847C535.819 255.005 535.855 255.208 535.855 255.455V264.794H544.577C545 264.794 545.344 264.927 545.608 265.191C545.89 265.456 546.031 265.791 546.031 266.197C546.031 266.62 545.89 266.964 545.608 267.229C545.344 267.493 545 267.625 544.577 267.625H535.855V278.076C535.872 279.61 536.154 281.021 536.7 282.309C537.264 283.597 538.084 284.77 539.159 285.828C541.344 287.997 543.934 289.082 546.93 289.082Z" stroke="#1C3144" stroke-width="2" mask="url(#path-49-outside-1_248_2323)"/>
<path d="M566.013 289.029C568.938 289.029 571.441 287.98 573.52 285.881C575.634 283.782 576.692 281.268 576.692 278.34C576.692 275.43 575.634 272.926 573.52 270.827C571.441 268.71 568.938 267.652 566.013 267.652C563.07 267.652 560.559 268.71 558.48 270.827C556.383 272.908 555.335 275.413 555.335 278.34C555.335 281.286 556.383 283.799 558.48 285.881C560.559 287.98 563.07 289.029 566.013 289.029ZM566.013 264.847C569.731 264.847 572.903 266.17 575.529 268.816C578.154 271.373 579.467 274.548 579.467 278.34C579.467 282.133 578.154 285.308 575.529 287.865C572.956 290.511 569.784 291.834 566.013 291.834C564.128 291.834 562.392 291.507 560.806 290.855C559.238 290.202 557.793 289.206 556.471 287.865C553.846 285.308 552.533 282.133 552.533 278.34C552.533 274.548 553.846 271.373 556.471 268.816C559.097 266.17 562.278 264.847 566.013 264.847Z" stroke="#1C3144" stroke-width="2" mask="url(#path-49-outside-1_248_2323)"/>
<path d="M598.524 289.082C598.947 289.082 599.291 289.214 599.555 289.479C599.696 289.62 599.793 289.77 599.846 289.929C599.916 290.087 599.952 290.281 599.952 290.511C599.952 290.916 599.819 291.26 599.555 291.543C599.291 291.807 598.947 291.939 598.524 291.939C594.753 291.939 591.511 290.608 588.797 287.944C586.101 285.299 584.7 282.089 584.595 278.314V255.455C584.595 255.032 584.736 254.679 585.018 254.397C585.282 254.132 585.626 254 586.048 254C586.26 254 586.445 254.035 586.604 254.106C586.762 254.159 586.912 254.256 587.053 254.397C587.194 254.538 587.291 254.688 587.344 254.847C587.414 255.005 587.449 255.208 587.449 255.455V264.794H596.172C596.595 264.794 596.938 264.927 597.203 265.191C597.485 265.456 597.626 265.791 597.626 266.197C597.626 266.62 597.485 266.964 597.203 267.229C596.938 267.493 596.595 267.625 596.172 267.625H587.449V278.076C587.467 279.61 587.749 281.021 588.295 282.309C588.859 283.597 589.678 284.77 590.753 285.828C592.938 287.997 595.529 289.082 598.524 289.082Z" stroke="#1C3144" stroke-width="2" mask="url(#path-49-outside-1_248_2323)"/>
<path d="M618.322 289.161C621.247 289.161 623.758 288.112 625.855 286.013C627.952 283.879 629 281.348 629 278.42C629 275.492 627.952 272.979 625.855 270.88C623.758 268.781 621.247 267.731 618.322 267.731C615.361 267.731 612.833 268.781 610.736 270.88C608.639 272.979 607.59 275.492 607.59 278.42C607.59 281.348 608.639 283.879 610.736 286.013C612.833 288.112 615.361 289.161 618.322 289.161ZM631.802 290.59C631.802 290.978 631.67 291.322 631.405 291.622C631.264 291.728 631.115 291.816 630.956 291.887C630.797 291.957 630.612 291.992 630.401 291.992C630.031 291.992 629.696 291.869 629.396 291.622C629.132 291.287 629 290.943 629 290.59V286.674C628.489 287.327 627.925 287.927 627.308 288.474C626.692 289.02 626.022 289.523 625.3 289.982C623.185 291.304 620.859 291.966 618.322 291.966C614.621 291.966 611.423 290.652 608.727 288.024C606.101 285.325 604.789 282.124 604.789 278.42C604.789 276.568 605.123 274.848 605.793 273.261C606.463 271.673 607.441 270.209 608.727 268.869C611.405 266.241 614.604 264.927 618.322 264.927C622.004 264.927 625.185 266.241 627.863 268.869C630.489 271.55 631.802 274.734 631.802 278.42V290.59Z" stroke="#1C3144" stroke-width="2" mask="url(#path-49-outside-1_248_2323)"/>
<path d="M651.599 289.056H651.573C651.925 289.056 652.251 289.188 652.551 289.452C652.709 289.611 652.815 289.77 652.868 289.929C652.938 290.087 652.974 290.281 652.974 290.511C652.974 290.899 652.833 291.243 652.551 291.543C652.251 291.807 651.925 291.939 651.573 291.939H651.414C647.731 291.939 644.515 290.599 641.767 287.918C640.392 286.577 639.361 285.105 638.674 283.5C638.004 281.895 637.652 280.14 637.617 278.235V255.429C637.617 255.217 637.643 255.032 637.696 254.873C637.767 254.697 637.872 254.538 638.013 254.397C638.313 254.132 638.656 254 639.044 254C639.273 254 639.467 254.035 639.626 254.106C639.784 254.159 639.943 254.256 640.101 254.397C640.242 254.538 640.339 254.697 640.392 254.873C640.463 255.032 640.498 255.217 640.498 255.429V277.944C640.498 279.478 640.762 280.898 641.291 282.203C641.819 283.491 642.595 284.673 643.617 285.748C643.793 285.907 643.969 286.092 644.145 286.304C644.339 286.498 644.515 286.666 644.674 286.807L644.621 286.754C644.797 286.877 644.965 287.001 645.123 287.124C645.3 287.23 645.458 287.336 645.599 287.442C645.74 287.53 645.872 287.609 645.996 287.68C646.119 287.733 646.26 287.794 646.419 287.865C646.665 287.988 646.921 288.103 647.185 288.209C647.467 288.315 647.74 288.412 648.004 288.5L649.855 288.95L651.599 289.056Z" stroke="#1C3144" stroke-width="2" mask="url(#path-49-outside-1_248_2323)"/>
<path d="M692.119 286.304C692.507 286.357 692.806 286.507 693.018 286.754C693.264 287.018 693.388 287.38 693.388 287.839C693.335 288.262 693.159 288.588 692.859 288.817V288.791C690.392 290.802 687.564 291.807 684.374 291.807C680.621 291.807 677.441 290.493 674.833 287.865C672.189 285.219 670.868 282.053 670.868 278.367C670.868 274.61 672.189 271.426 674.833 268.816C677.441 266.17 680.621 264.847 684.374 264.847C687.529 264.847 690.33 265.835 692.78 267.811H692.753C692.93 267.916 693.053 268.058 693.123 268.234C693.211 268.393 693.273 268.604 693.308 268.869C693.308 269.257 693.211 269.557 693.018 269.768V269.742C692.877 269.954 692.727 270.095 692.568 270.165C692.427 270.218 692.26 270.262 692.066 270.298H691.855C691.52 270.298 691.238 270.209 691.009 270.033C689.035 268.446 686.824 267.652 684.374 267.652C681.432 267.652 678.921 268.692 676.841 270.774C674.727 272.873 673.67 275.404 673.67 278.367C673.67 281.312 674.727 283.817 676.841 285.881C678.921 287.962 681.432 289.003 684.374 289.003C686.894 289.003 689.132 288.209 691.088 286.622C691.335 286.41 691.608 286.304 691.907 286.304H692.119Z" stroke="#1C3144" stroke-width="2" mask="url(#path-49-outside-1_248_2323)"/>
<path d="M713.317 289.161C716.242 289.161 718.753 288.112 720.85 286.013C722.947 283.879 723.996 281.348 723.996 278.42C723.996 275.492 722.947 272.979 720.85 270.88C718.753 268.781 716.242 267.731 713.317 267.731C710.357 267.731 707.828 268.781 705.731 270.88C703.634 272.979 702.586 275.492 702.586 278.42C702.586 281.348 703.634 283.879 705.731 286.013C707.828 288.112 710.357 289.161 713.317 289.161ZM726.797 290.59C726.797 290.978 726.665 291.322 726.401 291.622C726.26 291.728 726.11 291.816 725.952 291.887C725.793 291.957 725.608 291.992 725.396 291.992C725.026 291.992 724.692 291.869 724.392 291.622C724.128 291.287 723.996 290.943 723.996 290.59V286.674C723.485 287.327 722.921 287.927 722.304 288.474C721.687 289.02 721.018 289.523 720.295 289.982C718.181 291.304 715.855 291.966 713.317 291.966C709.617 291.966 706.419 290.652 703.722 288.024C701.097 285.325 699.784 282.124 699.784 278.42C699.784 276.568 700.119 274.848 700.789 273.261C701.458 271.673 702.436 270.209 703.722 268.869C706.401 266.241 709.599 264.927 713.317 264.927C717 264.927 720.181 266.241 722.859 268.869C725.485 271.55 726.797 274.734 726.797 278.42V290.59Z" stroke="#1C3144" stroke-width="2" mask="url(#path-49-outside-1_248_2323)"/>
<path d="M743.978 264.847C747.009 264.847 749.599 265.923 751.749 268.075C753.899 270.227 754.974 272.829 754.974 275.88C754.974 276.268 754.824 276.594 754.524 276.859C754.295 277.123 753.969 277.256 753.546 277.256C753.211 277.256 752.885 277.123 752.568 276.859C752.304 276.577 752.172 276.25 752.172 275.88C752.172 273.622 751.361 271.682 749.74 270.059C748.119 268.437 746.198 267.625 743.978 267.625C741.705 267.625 739.758 268.437 738.137 270.059C736.533 271.664 735.731 273.605 735.731 275.88V290.749C735.731 291.19 735.599 291.525 735.335 291.754C735.07 292.036 734.744 292.178 734.357 292.178C733.952 292.178 733.617 292.028 733.352 291.728C733.088 291.498 732.956 291.172 732.956 290.749V275.721C733.009 272.67 734.093 270.104 736.207 268.022C738.339 265.906 740.93 264.847 743.978 264.847Z" stroke="#1C3144" stroke-width="2" mask="url(#path-49-outside-1_248_2323)"/>
<path d="M784.789 276.753C784.595 275.518 784.216 274.39 783.652 273.367C783.106 272.344 782.374 271.4 781.458 270.536C780.454 269.654 779.335 268.975 778.101 268.498C776.868 268.005 775.581 267.758 774.242 267.758C771.458 267.758 769.035 268.701 766.974 270.589V270.562C765.106 272.273 763.987 274.337 763.617 276.753H784.789ZM787.749 278.182C787.749 278.27 787.74 278.34 787.722 278.393C787.581 279.169 787.123 279.558 786.348 279.558H763.564C763.811 282.203 764.877 284.417 766.762 286.198C767.784 287.221 768.921 287.98 770.172 288.474C771.423 288.967 772.78 289.214 774.242 289.214C775.934 289.214 777.59 288.809 779.211 287.997H779.185C780.736 287.186 782.013 286.057 783.018 284.611C783.211 284.293 783.546 284.082 784.022 283.976H784.154C784.436 283.976 784.727 284.082 785.026 284.293C785.326 284.54 785.502 284.84 785.555 285.193C785.573 285.228 785.581 285.272 785.581 285.325C785.581 285.36 785.581 285.396 785.581 285.431C785.581 285.766 785.485 286.039 785.291 286.251V286.198C784.674 287.115 783.96 287.936 783.15 288.659C782.357 289.364 781.467 289.982 780.48 290.511C778.542 291.534 776.463 292.045 774.242 292.045C770.489 292.045 767.282 290.722 764.621 288.077C761.978 285.413 760.656 282.212 760.656 278.473V278.076C760.797 274.407 762.181 271.303 764.806 268.763C767.414 266.206 770.559 264.927 774.242 264.927C777.907 264.927 781.044 266.206 783.652 268.763C786.313 271.321 787.678 274.442 787.749 278.129V278.182Z" stroke="#1C3144" stroke-width="2" mask="url(#path-49-outside-1_248_2323)"/>
<path d="M819.626 288.976C822.568 288.976 825.097 287.944 827.211 285.881C829.326 283.764 830.383 281.277 830.383 278.42C830.383 276.938 830.119 275.589 829.59 274.372C829.062 273.137 828.269 271.991 827.211 270.933C825.115 268.851 822.586 267.811 819.626 267.811C816.648 267.811 814.11 268.851 812.013 270.933C810.956 271.991 810.163 273.137 809.634 274.372C809.123 275.589 808.868 276.938 808.868 278.42C808.868 281.277 809.916 283.764 812.013 285.881C814.11 287.944 816.648 288.976 819.626 288.976ZM833.159 290.987C833.159 294.162 831.775 296.86 829.009 299.083C826.295 301.288 823.026 302.39 819.203 302.39C818.833 302.39 818.507 302.249 818.225 301.967C817.96 301.702 817.828 301.376 817.828 300.988C817.828 300.776 817.855 300.591 817.908 300.432C817.978 300.273 818.084 300.123 818.225 299.982C818.507 299.7 818.833 299.559 819.203 299.559C822.322 299.559 824.974 298.712 827.159 297.019C829.308 295.344 830.383 293.333 830.383 290.987V286.569C829.855 287.221 829.282 287.821 828.665 288.368C828.066 288.897 827.396 289.391 826.656 289.849C824.454 291.155 822.11 291.807 819.626 291.807C817.74 291.807 815.996 291.49 814.392 290.855C812.789 290.202 811.326 289.206 810.004 287.865C807.361 285.255 806.04 282.106 806.04 278.42C806.04 274.681 807.361 271.515 810.004 268.922C812.63 266.294 815.837 264.98 819.626 264.98C823.344 264.98 826.612 266.347 829.432 269.081L831.044 270.906L831.705 272.044L832.181 273.181L832.63 274.266L832.947 275.589C833.018 276.1 833.07 276.594 833.106 277.071C833.141 277.529 833.159 277.979 833.159 278.42V290.987Z" stroke="#1C3144" stroke-width="2" mask="url(#path-49-outside-1_248_2323)"/>
<path d="M849.811 264.847C852.841 264.847 855.432 265.923 857.582 268.075C859.731 270.227 860.806 272.829 860.806 275.88C860.806 276.268 860.656 276.594 860.357 276.859C860.128 277.123 859.802 277.256 859.379 277.256C859.044 277.256 858.718 277.123 858.401 276.859C858.137 276.577 858.004 276.25 858.004 275.88C858.004 273.622 857.194 271.682 855.573 270.059C853.952 268.437 852.031 267.625 849.811 267.625C847.537 267.625 845.59 268.437 843.969 270.059C842.366 271.664 841.564 273.605 841.564 275.88V290.749C841.564 291.19 841.432 291.525 841.167 291.754C840.903 292.036 840.577 292.178 840.189 292.178C839.784 292.178 839.449 292.028 839.185 291.728C838.921 291.498 838.789 291.172 838.789 290.749V275.721C838.841 272.67 839.925 270.104 842.04 268.022C844.172 265.906 846.762 264.847 849.811 264.847Z" stroke="#1C3144" stroke-width="2" mask="url(#path-49-outside-1_248_2323)"/>
<path d="M879.441 289.029C882.366 289.029 884.868 287.98 886.947 285.881C889.062 283.782 890.119 281.268 890.119 278.34C890.119 275.43 889.062 272.926 886.947 270.827C884.868 268.71 882.366 267.652 879.441 267.652C876.498 267.652 873.987 268.71 871.908 270.827C869.811 272.908 868.762 275.413 868.762 278.34C868.762 281.286 869.811 283.799 871.908 285.881C873.987 287.98 876.498 289.029 879.441 289.029ZM879.441 264.847C883.159 264.847 886.33 266.17 888.956 268.816C891.582 271.373 892.894 274.548 892.894 278.34C892.894 282.133 891.582 285.308 888.956 287.865C886.383 290.511 883.211 291.834 879.441 291.834C877.555 291.834 875.819 291.507 874.233 290.855C872.665 290.202 871.22 289.206 869.899 287.865C867.273 285.308 865.96 282.133 865.96 278.34C865.96 274.548 867.273 271.373 869.899 268.816C872.524 266.17 875.705 264.847 879.441 264.847Z" stroke="#1C3144" stroke-width="2" mask="url(#path-49-outside-1_248_2323)"/>
<path d="M919.485 264.768C919.925 264.768 920.269 264.936 920.515 265.271L920.489 265.218C920.753 265.465 920.885 265.791 920.885 266.197V280.986C920.885 284.02 919.784 286.604 917.582 288.738H917.608C915.476 290.872 912.85 291.939 909.731 291.939C908.181 291.939 906.762 291.675 905.476 291.146C904.189 290.617 903 289.832 901.908 288.791C899.722 286.727 898.604 284.179 898.551 281.145V266.197C898.551 265.809 898.683 265.482 898.947 265.218C899.229 264.918 899.564 264.768 899.952 264.768C900.374 264.768 900.718 264.936 900.982 265.271L900.956 265.218C901.238 265.482 901.379 265.809 901.379 266.197V280.986C901.379 283.244 902.189 285.149 903.811 286.701C905.432 288.306 907.405 289.109 909.731 289.109C912.04 289.109 914.013 288.306 915.652 286.701C917.256 285.149 918.057 283.244 918.057 280.986V266.197C918.057 265.809 918.207 265.482 918.507 265.218C918.771 264.918 919.097 264.768 919.485 264.768Z" stroke="#1C3144" stroke-width="2" mask="url(#path-49-outside-1_248_2323)"/>
<path d="M939.599 289.003C942.524 289.003 945.018 287.962 947.079 285.881C949.176 283.799 950.225 281.295 950.225 278.367C950.225 275.474 949.176 272.987 947.079 270.906C945.018 268.807 942.524 267.758 939.599 267.758C936.674 267.758 934.189 268.807 932.145 270.906C930.031 272.952 928.974 275.439 928.974 278.367C928.974 281.33 930.031 283.835 932.145 285.881C934.207 287.962 936.692 289.003 939.599 289.003ZM939.599 264.98C943.317 264.98 946.48 266.294 949.088 268.922C951.696 271.497 953 274.645 953 278.367C953 282.124 951.696 285.29 949.088 287.865C946.463 290.493 943.3 291.807 939.599 291.807C937.097 291.807 934.78 291.155 932.648 289.849C931.943 289.408 931.282 288.914 930.665 288.368C930.048 287.821 929.485 287.221 928.974 286.569V300.882C928.974 301.323 928.85 301.667 928.604 301.914C928.304 302.178 927.978 302.311 927.626 302.311C927.203 302.311 926.868 302.169 926.621 301.887C926.339 301.623 926.198 301.288 926.198 300.882V278.367C926.198 274.663 927.511 271.515 930.137 268.922C932.727 266.294 935.881 264.98 939.599 264.98Z" stroke="#1C3144" stroke-width="2" mask="url(#path-49-outside-1_248_2323)"/>
<path d="M412.752 91.2322C399.242 124.044 385.838 156.588 372.541 188.864C359.245 221.033 345.841 253.523 332.331 286.336C331.366 288.373 329.864 289.82 327.827 290.678L327.988 290.517C326.701 291.161 325.522 291.483 324.449 291.483C323.162 291.483 322.197 291.322 321.554 291C317.694 289.606 315.764 287.247 315.764 283.923C315.764 283.065 316.032 281.939 316.568 280.545L404.71 66.1405C406.319 62.8164 408.999 61.1544 412.752 61.1544C416.291 61.1544 418.864 62.8164 420.473 66.1405L509.741 280.384C510.277 281.778 510.545 282.958 510.545 283.923C510.545 285.746 510.009 287.193 508.937 288.266C507.972 289.338 506.578 290.249 504.755 291C503.897 291.322 502.878 291.483 501.699 291.483C498.053 291.483 495.48 289.767 493.978 286.336L412.752 91.2322Z" fill="#1C3144"/>
<path d="M586.174 208.081V208.196C598.028 208.196 608.042 204.053 616.213 195.881C624.385 187.709 628.414 177.811 628.414 166.187C628.414 154.447 624.385 144.549 616.213 136.377C612.07 132.234 607.466 129.126 602.402 127.054C597.338 124.983 591.928 123.947 586.174 123.947C574.549 123.947 564.651 128.09 556.479 136.262C548.423 144.434 544.394 154.332 544.394 165.956C544.394 177.581 548.307 187.479 556.479 195.766C564.651 203.938 574.549 208.081 586.174 208.081ZM586.174 106.798V106.337C602.632 106.337 616.674 112.092 628.298 123.717C639.923 135.341 645.678 149.268 645.678 165.611C645.678 181.955 639.923 195.881 628.298 207.506C616.674 219.13 602.632 225 586.289 225C570.291 225 556.364 219.13 544.509 207.506C532.77 195.881 527.13 181.955 527.13 165.726V117.501C527.13 109.445 527.13 101.388 527.13 93.4466C527.13 85.505 527.13 77.4484 527.13 69.2767C527.13 68.0106 527.245 66.9748 527.475 66.1691C527.705 65.3634 528.051 64.6729 528.511 64.0974C530.928 61.7955 533.345 60.6445 535.762 60.6445C537.949 60.6445 540.251 61.7955 542.668 64.0974C543.243 64.6729 543.704 65.3634 543.934 66.1691C544.164 66.9748 544.279 68.0106 544.279 69.2767V124.177C546.006 122.45 547.847 120.839 549.804 119.343C551.76 117.847 553.717 116.35 555.674 115.2C560.392 112.437 565.342 110.481 570.521 108.984C575.7 107.488 580.879 106.798 586.174 106.798ZM724.978 208.081V208.196C736.833 208.196 746.846 204.053 755.018 195.881C763.19 187.709 767.218 177.811 767.218 166.187C767.218 154.447 763.19 144.549 755.018 136.377C750.874 132.234 746.271 129.126 741.206 127.054C736.142 124.983 730.733 123.947 724.978 123.947C713.354 123.947 703.455 128.09 695.284 136.262C687.227 144.434 683.199 154.332 683.199 165.956C683.199 177.581 687.112 187.479 695.284 195.766C703.455 203.938 713.354 208.081 724.978 208.081ZM724.978 106.798V106.337C741.437 106.337 755.478 112.092 767.103 123.717C778.727 135.341 784.482 149.268 784.482 165.611C784.482 181.955 778.727 195.881 767.103 207.506C755.478 219.13 741.437 225 725.093 225C709.095 225 695.169 219.13 683.314 207.506C671.574 195.881 665.934 181.955 665.934 165.726V117.501C665.934 109.445 665.934 101.388 665.934 93.4466C665.934 85.505 665.934 77.4484 665.934 69.2767C665.934 68.0106 666.05 66.9748 666.28 66.1691C666.51 65.3634 666.855 64.6729 667.316 64.0974C669.733 61.7955 672.15 60.6445 674.567 60.6445C676.753 60.6445 679.055 61.7955 681.472 64.0974C682.048 64.6729 682.508 65.3634 682.738 66.1691C682.968 66.9748 683.084 68.0106 683.084 69.2767V124.177C684.81 122.45 686.651 120.839 688.608 119.343C690.565 117.847 692.521 116.35 694.478 115.2C699.197 112.437 704.146 110.481 709.325 108.984C714.504 107.488 719.684 106.798 724.978 106.798ZM906.252 156.864L906.368 156.634C905.332 152.605 903.72 148.807 901.534 145.239C899.347 141.671 896.93 138.334 893.937 135.571C890.139 132.003 885.651 129.471 880.817 127.63C875.983 125.788 870.918 124.867 865.624 124.867C855.15 124.867 845.828 128.551 837.541 135.917V135.801C831.211 141.671 827.067 148.692 825.111 156.864H906.252ZM924.668 165.151L924.437 164.805C924.437 165.151 924.437 165.496 924.437 165.841C924.437 166.187 924.322 166.647 924.092 167.222L924.207 167.107C923.056 171.251 920.294 173.322 916.036 173.322H824.765C825.456 177.696 826.837 181.724 828.794 185.522C830.75 189.321 833.628 192.658 836.965 195.996C845.022 203.707 854.46 207.736 865.739 207.736C869.307 207.736 872.645 207.275 875.752 206.47C878.86 205.664 881.967 204.513 885.075 203.017H884.96C887.837 201.521 890.6 199.679 893.132 197.492C895.664 195.306 897.966 192.773 899.922 189.896C901.188 188.17 903.145 187.019 905.792 186.443H907.058C908.669 186.443 910.281 186.904 911.777 187.824C913.849 189.09 915.115 190.932 915.575 193.349C915.69 193.694 915.805 193.924 915.805 194.155C915.805 194.385 915.805 194.73 915.805 195.075C915.805 196.802 915.23 198.413 914.194 199.909C911.547 203.707 908.439 207.16 904.871 210.268C901.303 213.375 897.39 216.023 893.247 218.209C884.615 222.698 875.522 225 865.969 225C849.971 225 835.93 219.475 824.305 207.736C812.68 195.996 807.156 182.07 807.156 166.187V164.46C807.156 148.692 813.486 134.996 824.996 123.832C836.39 112.667 850.201 107.258 865.969 107.258C881.967 107.258 895.664 112.667 907.058 123.832C912.698 129.356 916.956 135.686 919.949 142.477C922.941 149.268 924.668 156.749 924.668 164.92V165.151ZM1059.56 112.783L1059.44 113.243C1059.79 114.049 1060.02 115.084 1060.02 116.235C1060.02 117.041 1060.02 117.501 1059.9 117.732C1059.79 117.962 1059.67 118.192 1059.56 118.537C1059.44 118.652 1059.33 118.883 1059.21 119.228C1059.1 119.573 1058.98 119.803 1058.87 119.918L987.625 263.442C986.934 264.823 985.783 265.974 984.402 266.895C983.021 267.815 981.525 268.276 979.798 268.276C978.532 268.276 977.266 268.045 976.115 267.47C974.849 266.895 973.928 266.089 973.238 265.168C972.547 264.247 971.972 263.211 971.511 262.061C971.396 261.255 971.281 260.334 971.281 259.298C971.281 258.032 971.626 256.766 972.202 255.5L988.43 222.928L970.13 181.609L956.089 150.188L942.162 118.883C942.162 118.767 942.162 118.652 942.162 118.537C942.162 118.422 942.162 118.307 942.162 118.192C942.047 117.616 941.932 117.041 941.932 116.466V115.084C941.932 114.969 941.932 114.854 942.047 114.739C943.083 111.401 944.809 109.215 947.111 108.294C948.377 107.833 949.528 107.603 950.564 107.603C950.679 107.603 950.909 107.603 951.139 107.718C951.37 107.833 951.715 107.949 952.06 108.064C952.175 108.179 952.521 108.179 953.096 108.179C954.132 108.639 955.168 109.33 956.089 110.25C957.009 111.171 957.7 112.092 958.16 112.898L967.598 133.96L976.46 153.756L981.87 165.726L987.049 177.466L992.459 189.666L998.443 202.902L1013.52 172.402L1028.83 141.671L1035.96 127.169L1043.33 112.207C1043.91 111.056 1044.6 110.135 1045.4 109.445C1046.21 108.754 1047.24 108.179 1048.51 107.718H1048.39C1048.86 107.488 1049.32 107.373 1049.89 107.258C1050.47 107.143 1050.93 107.143 1051.39 107.143C1051.96 107.143 1052.65 107.143 1053.34 107.258C1054.03 107.373 1054.72 107.603 1055.42 107.949C1057.26 108.984 1058.64 110.596 1059.67 112.898L1059.56 112.783Z" fill="#1C3144"/>
<path d="M364 187H460" stroke="#1C3144" stroke-width="17"/>
</svg>
