<svg width="299" height="613" viewBox="0 0 299 613" fill="none" xmlns="http://www.w3.org/2000/svg">
<mask id="mask0_0_4734" style="mask-type:alpha" maskUnits="userSpaceOnUse" x="-144" y="0" width="443" height="613">
<path opacity="0.4" d="M-143.604 0H298.604V612.566H-143.604V0Z" fill="#D9D9D9"/>
</mask>
<g mask="url(#mask0_0_4734)">
<path opacity="0.4" d="M70.252 0V152.235L37.5171 110.646C29.651 100.652 28.1658 87.1977 33.6697 75.7942L70.252 0Z" fill="#E9E9E9"/>
<path opacity="0.4" d="M70.2496 0V152.235L100.009 110.646C107.16 100.652 108.51 87.1977 103.506 75.7942L70.2496 0Z" fill="#99A9B4"/>
<path opacity="0.4" d="M-19.6051 120.684L42.9696 221.026L8.64603 208.204C-2.89746 203.892 -11.0592 193.486 -12.4958 181.247L-19.6051 120.684Z" fill="#E9E9E9"/>
<path opacity="0.4" d="M-19.6049 120.684L42.9698 221.026L46.5582 184.562C47.765 172.299 42.0108 160.391 31.6527 153.716L-19.6049 120.684Z" fill="#99A9B4"/>
<path opacity="0.4" d="M131.869 126.863V250.101L112.428 219.835C105.889 209.656 104.655 195.953 109.23 184.338L131.869 126.863Z" fill="#E9E9E9"/>
<path opacity="0.4" d="M131.869 126.863L131.869 250.101L154.087 219.835C161.559 209.656 162.97 195.953 157.742 184.338L131.869 126.863Z" fill="#99A9B4"/>
<path opacity="0.4" d="M276.856 293.597L153.618 293.597L184.937 270.874C194.469 263.958 207.303 262.652 218.18 267.491L276.856 293.597Z" fill="#E9E9E9"/>
<path opacity="0.4" d="M276.856 293.597L153.618 293.597L184.937 322C194.469 330.645 207.303 332.277 218.18 326.228L276.856 293.597Z" fill="#99A9B4"/>
<path opacity="0.4" d="M203.354 424.945L127.465 349.056L158.599 353.117C170.818 354.711 181.119 363.006 185.282 374.604L203.354 424.945Z" fill="#E9E9E9"/>
<path opacity="0.4" d="M203.354 424.946L127.465 349.057L131.526 380.191C133.12 392.41 141.415 402.711 153.013 406.875L203.354 424.946Z" fill="#99A9B4"/>
<path opacity="0.4" d="M-25.7365 440.133L20.1615 394.235L18.7313 405.2C17.1375 417.419 8.84279 427.72 -2.75516 431.883L-25.7365 440.133Z" fill="#E9E9E9"/>
<path opacity="0.4" d="M-17.4875 417.148L-25.7372 440.129L-2.78815 417.18L20.1609 394.231L9.196 395.661C-3.02307 397.255 -13.3241 405.55 -17.4875 417.148Z" fill="#99A9B4"/>
<path opacity="0.4" d="M106.497 231.978V289.972L102.335 284.313C94.9366 274.253 93.5395 260.709 98.7166 249.23L106.497 231.978Z" fill="#E9E9E9"/>
<path opacity="0.4" d="M106.497 231.978V289.972L112.046 284.313C121.911 274.253 123.774 260.709 116.871 249.23L106.497 231.978Z" fill="#99A9B4"/>
<path opacity="0.4" d="M298.604 242.851L244.234 242.851L249.539 238.69C258.97 231.291 271.668 229.894 282.43 235.071L298.604 242.851Z" fill="#E9E9E9"/>
<path opacity="0.4" d="M298.604 242.852L244.234 242.852L249.539 248.4C258.97 258.265 271.668 260.128 282.43 253.225L298.604 242.852Z" fill="#99A9B4"/>
<path opacity="0.4" d="M176.251 52.0718L176.762 149.735L160.331 128.606C152.767 118.878 151.28 105.736 156.478 94.5639L176.251 52.0718Z" fill="#E9E9E9"/>
<path opacity="0.4" d="M176.25 52.0713L176.761 149.735L192.97 128.434C200.432 118.628 201.782 105.471 196.466 94.3541L176.25 52.0713Z" fill="#99A9B4"/>
<path opacity="0.4" d="M-62.7373 41.4775L6.32218 110.537L-20.2191 107.075C-32.4382 105.481 -42.7392 97.1865 -46.9025 85.5886L-62.7373 41.4775Z" fill="#E9E9E9"/>
<path opacity="0.4" d="M-62.7354 41.479L6.32406 110.538L2.86216 83.9972C1.26836 71.7782 -7.02638 61.4771 -18.6243 57.3138L-62.7354 41.479Z" fill="#99A9B4"/>
<path opacity="0.4" d="M52.1271 228.353V333.468L30.7606 309.122C22.3495 299.538 20.7613 286.635 26.6466 275.699L52.1271 228.353Z" fill="#E9E9E9"/>
<path opacity="0.4" d="M52.1275 228.353V333.468L70.8231 309.122C78.1828 299.538 79.5725 286.635 74.4228 275.699L52.1275 228.353Z" fill="#99A9B4"/>
<path opacity="0.4" d="M276.856 355.215L207.988 355.215L219.393 346.793C228.463 340.095 240.674 338.831 251.023 343.517L276.856 355.215Z" fill="#E9E9E9"/>
<path opacity="0.4" d="M276.856 355.216L207.988 355.216L219.393 365.743C228.463 374.116 240.674 375.696 251.023 369.838L276.856 355.216Z" fill="#99A9B4"/>
<path opacity="0.4" d="M243.522 93.9151L263.117 86.8811L242.024 107.974L220.931 129.067L222.036 120.599C223.629 108.379 231.924 98.0785 243.522 93.9151Z" fill="#E9E9E9"/>
<path opacity="0.4" d="M263.12 86.8807L220.934 129.067L229.403 127.962C241.622 126.368 251.923 118.073 256.086 106.476L263.12 86.8807Z" fill="#99A9B4"/>
<path opacity="0.4" d="M139.118 21.748V83.3671L134.409 76.3757C127.614 66.2877 126.331 52.7068 131.085 41.1958L139.118 21.748Z" fill="#E9E9E9"/>
<path opacity="0.4" d="M139.12 21.748V83.3671L145.399 76.3757C154.459 66.2877 156.169 52.7068 149.83 41.1958L139.12 21.748Z" fill="#99A9B4"/>
<path opacity="0.4" d="M23.1308 18.123V65.2435L20.1874 62.1751C11.4458 53.0622 9.7952 40.7939 15.9118 30.3956L23.1308 18.123Z" fill="#E9E9E9"/>
<path opacity="0.4" d="M23.1312 18.123L23.1312 65.2435L24.1123 62.1751C27.0262 53.0622 27.5764 40.7939 25.5376 30.3956L23.1312 18.123Z" fill="#99A9B4"/>
<path opacity="0.4" d="M274.03 141.2L189.58 225.65L194.392 188.759C195.986 176.54 204.281 166.239 215.879 162.075L274.03 141.2Z" fill="#E9E9E9"/>
<path opacity="0.4" d="M274.029 141.2L189.579 225.65L226.471 220.838C238.69 219.244 248.991 210.949 253.154 199.352L274.029 141.2Z" fill="#99A9B4"/>
<path opacity="0.4" d="M-100.107 369.714L1.38273 369.714L-21.1503 382.691C-31.0013 388.364 -44.2633 389.435 -55.5038 385.465L-100.107 369.714Z" fill="#E9E9E9"/>
<path opacity="0.4" d="M-100.107 369.714L1.38273 369.714L-21.1503 351.547C-31.0013 343.605 -44.2633 342.105 -55.5038 347.662L-100.107 369.714Z" fill="#99A9B4"/>
<path opacity="0.4" d="M57.3777 435.3C45.5442 547.114 97.7329 577.477 232.896 605.307C233.34 605.399 233.552 604.778 233.135 604.602C122.709 557.825 70.8727 520.84 58.141 435.265C58.0769 434.834 57.4236 434.867 57.3777 435.3Z" fill="#E9E9E9"/>
<path opacity="0.4" d="M17.9073 558.169C26.569 505.856 24.7385 486.516 48.1755 453.241C48.407 452.912 48.9224 453.13 48.848 453.528C41.141 494.714 40.8842 517.52 70.1578 551.385C70.321 551.574 70.264 551.878 70.0417 551.988C56.9958 558.435 49.8371 566.44 41.1601 582.053C37.6807 588.313 32.9247 593.875 26.6071 597.098C5.34117 607.947 -10.0721 606.688 -34.5707 601.162C-34.9868 601.068 -34.9484 600.452 -34.5237 600.416C-17.7764 598.997 -5.77979 597.175 3.36466 590.206C12.9071 582.932 15.9261 570.135 17.9073 558.169Z" fill="#E9E9E9"/>
<path opacity="0.4" d="M11.5629 555.604C15.59 528.035 18.4647 514.177 23.1078 500.731C23.2622 500.283 22.5998 499.988 22.3607 500.393C-13.9569 561.924 -34.3581 576.462 -66.9551 563.623C-67.3631 563.462 -67.6856 564.04 -67.337 564.312C-43.5076 582.959 -27.2026 586.491 4.83332 566.303C8.50476 563.99 10.9183 560.016 11.5629 555.604Z" fill="#E9E9E9"/>
<path opacity="0.4" d="M142.249 294.195C32.9939 425.853 143.871 550.587 272.973 611.848C273.378 612.04 273.285 612.666 272.851 612.552C183.812 589.022 -53.6459 453.028 141.665 293.687C142.015 293.402 142.538 293.848 142.249 294.195Z" fill="#99A9B4"/>
<path opacity="0.4" d="M54.5084 420.174C37.8867 348.188 0.120529 343.696 -34.6833 323.267C-35.0275 323.065 -34.8399 322.549 -34.4423 322.597C22.1995 329.387 60.5967 340.061 55.2582 420.114C55.23 420.537 54.604 420.588 54.5084 420.174Z" fill="#E9E9E9"/>
</g>
</svg>
